D:\school\WTK\thesis\model\3dpredictsim\Results\debug\Pog_s1_tmt_bCst_d00_k1000_ig24_act_TTC_IAT30_GRF.mot
nRows=12
nColumns=19

name D:\school\WTK\thesis\model\3dpredictsim\Results\debug\Pog_s1_tmt_bCst_d00_k1000_ig24_act_TTC_IAT30_GRF.mot
datacolumns 19
datarows 12
range 0.4473710874 0.5457927266
endheader
time 	ground_force_vx	ground_force_vy	ground_force_vz	ground_force_px	ground_force_py	ground_force_pz	1_ground_force_vx	1_ground_force_vy	1_ground_force_vz	1_ground_force_px	1_ground_force_py	1_ground_force_pz	ground_torque_x	ground_torque_y	ground_torque_z	1_ground_torque_x	1_ground_torque_y	1_ground_torque_z
        0.4473710874	       88.6225059925	      350.9267414418	       -6.3532686066	        0.3311003406	        0.0000000000	        0.1290336880	      -30.5561847524	       92.4584196060	      -85.9585737802	        0.6628085846	        0.0000000000	       -0.1559607681	        0.0000000000	        0.0000000000	        0.0000000000	        0.0000000000	        0.0000000000	        0.0000000000	
        0.4563185091	       70.5059687895	      298.6810091614	       -0.8264910105	        0.3346970234	        0.0000000000	        0.1282853414	        6.0396262551	      148.4580714614	      -55.1025165947	        0.6673295790	        0.0000000000	       -0.1532112572	        0.0000000000	        0.0000000000	        0.0000000000	        0.0000000000	        0.0000000000	        0.0000000000	
        0.4652659309	       49.1620902386	      238.0851943145	       -8.1218354390	        0.3346736671	        0.0000000000	        0.1278784890	       28.6186243451	      233.7193653739	      -32.2139517777	        0.6759018590	        0.0000000000	       -0.1529128561	        0.0000000000	        0.0000000000	        0.0000000000	        0.0000000000	        0.0000000000	        0.0000000000	
        0.4742133526	       39.4828265031	      184.4309390530	        0.1631141527	        0.3346611557	        0.0000000000	        0.1284655264	       20.1495268861	      338.8654904170	       10.4425105210	        0.6846000168	        0.0000000000	       -0.1530078577	        0.0000000000	        0.0000000000	        0.0000000000	        0.0000000000	        0.0000000000	        0.0000000000	
        0.4831607744	       21.8707476459	      117.5285552779	       -0.7888546842	        0.3342868269	        0.0000000000	        0.1284753907	       10.0935925668	      436.4456847116	       28.0757798363	        0.6944005280	        0.0000000000	       -0.1526069851	        0.0000000000	        0.0000000000	        0.0000000000	        0.0000000000	        0.0000000000	        0.0000000000	
        0.4921081961	       -7.2874708345	       44.1418636847	       -3.8995085018	        0.3306146288	        0.0000000000	        0.1277770316	      -12.8547627924	      534.8906327640	       48.6965729212	        0.7084632305	        0.0000000000	       -0.1506236934	        0.0000000000	        0.0000000000	        0.0000000000	        0.0000000000	        0.0000000000	        0.0000000000	
        0.5010556179	        0.5100227033	       -0.4741183719	        0.2660157579	        0.0000000000	        0.0000000000	        0.0000000000	      -60.3288230776	      650.3317898791	       61.1291567715	        0.7261146060	        0.0000000000	       -0.1469494437	        0.0000000000	        0.0000000000	        0.0000000000	        0.0000000000	        0.0000000000	        0.0000000000	
        0.5100030396	       -0.4540464417	        0.3366811363	       -0.2549765669	        0.0000000000	        0.0000000000	        0.0000000000	      -76.8862735225	      642.5330238651	       56.3215437896	        0.7281954874	        0.0000000000	       -0.1463989604	        0.0000000000	        0.0000000000	        0.0000000000	        0.0000000000	        0.0000000000	        0.0000000000	
        0.5189504614	       -5.6429024584	        3.4250997769	       -2.8344268223	        0.0000000000	        0.0000000000	        0.0000000000	      -75.4371550643	      683.1359676556	       28.5700673525	        0.7446828715	        0.0000000000	       -0.1437623980	        0.0000000000	        0.0000000000	        0.0000000000	        0.0000000000	        0.0000000000	        0.0000000000	
        0.5278978831	       -0.2863934788	        0.1469189726	       -0.1280719669	        0.0000000000	        0.0000000000	        0.0000000000	      -76.9091642467	      688.1568480324	       12.5584399040	        0.7521668502	        0.0000000000	       -0.1423004542	        0.0000000000	        0.0000000000	        0.0000000000	        0.0000000000	        0.0000000000	        0.0000000000	
        0.5368453049	       -6.3355803658	        3.0029073297	       -2.6058626721	        0.0000000000	        0.0000000000	        0.0000000000	      -74.6726145946	      679.9658977214	        5.5155815034	        0.7593933255	        0.0000000000	       -0.1409122692	        0.0000000000	        0.0000000000	        0.0000000000	        0.0000000000	        0.0000000000	        0.0000000000	
        0.5457927266	       -1.5676776055	        0.6837474761	       -0.5735464151	        0.0000000000	        0.0000000000	        0.0000000000	      -71.2179499247	      654.2039800363	       -1.8293992296	        0.7639368042	        0.0000000000	       -0.1401826860	        0.0000000000	        0.0000000000	        0.0000000000	        0.0000000000	        0.0000000000	        0.0000000000	
